# xmcd
#
# Track frame offsets:
#	150
#	17171
#	34029
#	49687
#	66276
#	89222
#	110559
#	130091
#	147174
#	162384
#	177616
#	202866
#	221679
#	240687
#	257101
#	270739
#
# Disc length: 3858 seconds
#
# Revision: 1
# Processed by: cddbd v1.5.2PL0 Copyright (c) Steve Scherf et al.
# Submitted via: audiograbber 1.83.01
#
DISCID=f30f1010
DTITLE=Country Rock - Country Rock
DYEAR=2008
DGENRE=Country
TTITLE0=Mark Selby - She's Like Mercury
TTITLE1=Michael Holloway - Red Thunderbird
TTITLE2=Jackson Mackay - Why Do You Do Me This Way?
TTITLE3=Irion - Sweet Little Baby
TTITLE4=C.C.B. - Smooth And Easy 
TTITLE5=Steve Fister Band - She Ain't Lonesome
TTITLE6=Dean Collins - It's Always The Same Old Story
TTITLE7=Collin Raye - Young As We're Ever Going To Be
TTITLE8=Big Bull Band - For Texas
TTITLE9=Miko Marks - Freeway Bound
TTITLE10=Anders Osborne - Back On Dumaine
TTITLE11=Henrik Freischlader Band - As Long As
TTITLE12=The Returners - Come Together
TTITLE13=Dallas Wayne - Invisible Man
TTITLE14=Joe Hodgkins - Untold Stories (Duet with Tim O'Brien)
TTITLE15=Shannah - My Truck
EXTD=YEAR: 2008
EXTT0=
EXTT1=
EXTT2=
EXTT3=
EXTT4=
EXTT5=
EXTT6=
EXTT7=
EXTT8=
EXTT9=
EXTT10=
EXTT11=
EXTT12=
EXTT13=
EXTT14=
EXTT15=
PLAYORDER=
